<mxfile host="65bd71144e">
    <diagram id="YQEeyEsAXImCTdxHAv1M" name="第 1 页">
        <mxGraphModel dx="1172" dy="791" grid="0" gridSize="10" guides="1" tooltips="1" connect="1" arrows="1" fold="1" page="1" pageScale="1" pageWidth="2339" pageHeight="3300" background="#ffffff" math="0" shadow="0">
            <root>
                <mxCell id="0"/>
                <mxCell id="1" parent="0"/>
                <mxCell id="396" value="" style="rounded=1;whiteSpace=wrap;html=1;fontSize=16;fillColor=#E0D3C3;container=0;" vertex="1" parent="1">
                    <mxGeometry x="279" y="1832" width="217" height="68" as="geometry"/>
                </mxCell>
                <mxCell id="352" value="" style="rounded=1;whiteSpace=wrap;html=1;fontSize=16;fillColor=#E0D3C3;container=0;" parent="1" vertex="1">
                    <mxGeometry x="39.01" y="1833" width="229.99" height="68" as="geometry"/>
                </mxCell>
                <mxCell id="366" value="Full" style="rounded=1;whiteSpace=wrap;html=1;fontSize=16;fillColor=#D8B29C;fontColor=default;labelBackgroundColor=none;container=0;strokeWidth=1;" parent="1" vertex="1">
                    <mxGeometry x="58.639427792915534" y="1842.842105263158" width="88.57765667574932" height="48.31578947368421" as="geometry"/>
                </mxCell>
                <mxCell id="367" value="First" style="rounded=1;whiteSpace=wrap;html=1;fontSize=16;fillColor=#D8B29C;fontColor=default;labelBackgroundColor=none;container=0;strokeWidth=1;" parent="1" vertex="1">
                    <mxGeometry x="167.21626702997273" y="1842.842105263158" width="88.57765667574932" height="48.31578947368421" as="geometry"/>
                </mxCell>
                <mxCell id="368" value="Middle" style="rounded=1;whiteSpace=wrap;html=1;fontSize=16;fillColor=#D8B29C;fontColor=default;labelBackgroundColor=none;container=0;strokeWidth=1;" parent="1" vertex="1">
                    <mxGeometry x="290" y="1842.84" width="193" height="48.32" as="geometry"/>
                </mxCell>
                <mxCell id="383" value="&lt;font style=&quot;font-size: 19px;&quot; color=&quot;#333333&quot;&gt;Block 1&lt;/font&gt;" style="text;html=1;strokeColor=none;fillColor=none;align=center;verticalAlign=middle;whiteSpace=wrap;rounded=0;" vertex="1" parent="1">
                    <mxGeometry x="181.51" y="1920" width="78.49" height="30" as="geometry"/>
                </mxCell>
                <mxCell id="384" value="" style="rounded=1;whiteSpace=wrap;html=1;fontSize=16;fillColor=#E0D3C3;container=0;" vertex="1" parent="1">
                    <mxGeometry x="510" y="1833" width="245" height="68" as="geometry"/>
                </mxCell>
                <mxCell id="386" value="Last" style="rounded=1;whiteSpace=wrap;html=1;fontSize=16;fillColor=#D8B29C;fontColor=default;labelBackgroundColor=none;container=0;strokeWidth=1;" vertex="1" parent="1">
                    <mxGeometry x="537.2162670299728" y="1842.842105263158" width="88.57765667574932" height="48.31578947368421" as="geometry"/>
                </mxCell>
                <mxCell id="387" value="First" style="rounded=1;whiteSpace=wrap;html=1;fontSize=16;fillColor=#D8B29C;fontColor=default;labelBackgroundColor=none;container=0;strokeWidth=1;" vertex="1" parent="1">
                    <mxGeometry x="645.792833787466" y="1842.842105263158" width="88.57765667574932" height="48.31578947368421" as="geometry"/>
                </mxCell>
                <mxCell id="388" value="&lt;font style=&quot;font-size: 19px;&quot; color=&quot;#333333&quot;&gt;Block 2&lt;/font&gt;" style="text;html=1;strokeColor=none;fillColor=none;align=center;verticalAlign=middle;whiteSpace=wrap;rounded=0;" vertex="1" parent="1">
                    <mxGeometry x="342.26" y="1920" width="88.49" height="30" as="geometry"/>
                </mxCell>
                <mxCell id="389" value="" style="shape=curlyBracket;whiteSpace=wrap;html=1;rounded=1;labelPosition=left;verticalLabelPosition=middle;align=right;verticalAlign=middle;fontSize=19;fontColor=#333333;direction=south;strokeColor=#AC99BF;strokeWidth=3;" vertex="1" parent="1">
                    <mxGeometry x="167.22" y="1810" width="452.78" height="20" as="geometry"/>
                </mxCell>
                <mxCell id="391" value="&lt;font color=&quot;#333333&quot;&gt;&lt;span style=&quot;font-size: 19px;&quot;&gt;Logic Record 2&lt;/span&gt;&lt;/font&gt;" style="text;html=1;strokeColor=none;fillColor=none;align=center;verticalAlign=middle;whiteSpace=wrap;rounded=0;" vertex="1" parent="1">
                    <mxGeometry x="325.41" y="1760" width="136.39" height="30" as="geometry"/>
                </mxCell>
                <mxCell id="392" value="&lt;font color=&quot;#333333&quot;&gt;&lt;span style=&quot;font-size: 19px;&quot;&gt;Logic Record 1&lt;/span&gt;&lt;/font&gt;" style="text;html=1;strokeColor=none;fillColor=none;align=center;verticalAlign=middle;whiteSpace=wrap;rounded=0;" vertex="1" parent="1">
                    <mxGeometry x="39.00999999999999" y="1760" width="136.39" height="30" as="geometry"/>
                </mxCell>
                <mxCell id="393" value="" style="shape=curlyBracket;whiteSpace=wrap;html=1;rounded=1;labelPosition=left;verticalLabelPosition=middle;align=right;verticalAlign=middle;fontSize=19;fontColor=#333333;direction=south;strokeColor=#AC99BF;strokeWidth=3;" vertex="1" parent="1">
                    <mxGeometry x="60" y="1810" width="80" height="20" as="geometry"/>
                </mxCell>
                <mxCell id="394" value="" style="shape=curlyBracket;whiteSpace=wrap;html=1;rounded=1;labelPosition=left;verticalLabelPosition=middle;align=right;verticalAlign=middle;fontSize=19;fontColor=#333333;direction=south;strokeColor=#AC99BF;strokeWidth=3;" vertex="1" parent="1">
                    <mxGeometry x="650" y="1810" width="213" height="20" as="geometry"/>
                </mxCell>
                <mxCell id="395" value="&lt;font color=&quot;#333333&quot;&gt;&lt;span style=&quot;font-size: 19px;&quot;&gt;Logic Record 3&lt;/span&gt;&lt;/font&gt;" style="text;html=1;strokeColor=none;fillColor=none;align=center;verticalAlign=middle;whiteSpace=wrap;rounded=0;" vertex="1" parent="1">
                    <mxGeometry x="688.3" y="1760" width="136.39" height="30" as="geometry"/>
                </mxCell>
                <mxCell id="397" value="&lt;font style=&quot;font-size: 19px;&quot; color=&quot;#333333&quot;&gt;Block 3&lt;/font&gt;" style="text;html=1;strokeColor=none;fillColor=none;align=center;verticalAlign=middle;whiteSpace=wrap;rounded=0;" vertex="1" parent="1">
                    <mxGeometry x="588.25" y="1920" width="88.49" height="30" as="geometry"/>
                </mxCell>
                <mxCell id="398" value="" style="rounded=1;whiteSpace=wrap;html=1;fontSize=16;fillColor=#E0D3C3;container=0;" vertex="1" parent="1">
                    <mxGeometry x="769" y="1832" width="110" height="68" as="geometry"/>
                </mxCell>
                <mxCell id="399" value="Last" style="rounded=1;whiteSpace=wrap;html=1;fontSize=16;fillColor=#D8B29C;fontColor=default;labelBackgroundColor=none;container=0;strokeWidth=1;" vertex="1" parent="1">
                    <mxGeometry x="779.7128337874659" y="1841.842105263158" width="88.57765667574932" height="48.31578947368421" as="geometry"/>
                </mxCell>
                <mxCell id="400" value="&lt;font style=&quot;font-size: 19px;&quot; color=&quot;#333333&quot;&gt;Block 4&lt;/font&gt;" style="text;html=1;strokeColor=none;fillColor=none;align=center;verticalAlign=middle;whiteSpace=wrap;rounded=0;" vertex="1" parent="1">
                    <mxGeometry x="786" y="1920" width="88.49" height="30" as="geometry"/>
                </mxCell>
            </root>
        </mxGraphModel>
    </diagram>
</mxfile>